<svg width="376" height="150" viewBox="0 0 376 150" fill="none" xmlns="http://www.w3.org/2000/svg">
<path d="M1.99549 47.8576C1.94309 47.3078 1.45492 46.9046 0.905124 46.957C0.355331 47.0094 -0.0478877 47.4976 0.0045109 48.0474L1.99549 47.8576ZM370.038 90.3868C370.527 90.6422 371.131 90.4522 371.387 89.9625L375.548 81.9824C375.803 81.4927 375.613 80.8887 375.124 80.6333C374.634 80.3779 374.03 80.5679 373.775 81.0576L370.076 88.1511L362.982 84.4521C362.493 84.1968 361.889 84.3867 361.633 84.8764C361.378 85.3661 361.568 85.9701 362.057 86.2255L370.038 90.3868ZM0.493159 52.355C0.565055 52.9026 1.06724 53.2882 1.61483 53.2163C2.16241 53.1444 2.54804 52.6422 2.47614 52.0946L0.493159 52.355ZM3.87377 60.5361C3.76589 59.9945 3.23934 59.6428 2.69769 59.7507C2.15605 59.8586 1.80442 60.3852 1.9123 60.9268L3.87377 60.5361ZM3.87127 69.3855C4.01216 69.9195 4.55928 70.2382 5.09329 70.0973C5.6273 69.9564 5.94598 69.4093 5.80509 68.8753L3.87127 69.3855ZM8.23426 77.0898C8.0622 76.565 7.49729 76.2791 6.97249 76.4511C6.44769 76.6232 6.16173 77.1881 6.33379 77.7129L8.23426 77.0898ZM9.27543 85.8775C9.47763 86.3914 10.0582 86.6442 10.5721 86.442C11.0861 86.2398 11.3388 85.6592 11.1366 85.1453L9.27543 85.8775ZM14.5036 93.0189C14.2715 92.5177 13.6771 92.2995 13.176 92.5316C12.6748 92.7636 12.4566 93.358 12.6887 93.8592L14.5036 93.0189ZM16.575 101.626C16.8373 102.112 17.4439 102.294 17.9299 102.031C18.416 101.769 18.5974 101.163 18.3352 100.677L16.575 101.626ZM22.6367 108.071C22.3435 107.603 21.7264 107.461 21.2584 107.755C20.7904 108.048 20.6487 108.665 20.942 109.133L22.6367 108.071ZM25.8124 116.335C26.138 116.781 26.7636 116.879 27.2096 116.553C27.6557 116.227 27.7534 115.602 27.4277 115.156L25.8124 116.335ZM32.7262 121.855C32.3665 121.436 31.7352 121.388 31.3161 121.748C30.8969 122.107 30.8487 122.739 31.2084 123.158L32.7262 121.855ZM37.1612 129.514C37.5567 129.899 38.1898 129.891 38.5753 129.496C38.9609 129.101 38.9529 128.467 38.5575 128.082L37.1612 129.514ZM44.9426 133.717C44.51 133.374 43.881 133.446 43.5376 133.878C43.1942 134.311 43.2665 134.94 43.6991 135.283L44.9426 133.717ZM50.8407 140.314C51.3104 140.605 51.9267 140.459 52.2171 139.989C52.5075 139.52 52.3621 138.903 51.8923 138.613L50.8407 140.314ZM59.3783 142.587C58.874 142.362 58.2827 142.589 58.0577 143.093C57.8328 143.598 58.0593 144.189 58.5637 144.414L59.3783 142.587ZM66.8096 147.383C67.342 147.53 67.8927 147.217 68.0397 146.685C68.1866 146.152 67.8742 145.602 67.3418 145.455L66.8096 147.383ZM75.6387 147.046C75.0896 146.986 74.5961 147.383 74.5362 147.932C74.4764 148.481 74.873 148.975 75.422 149.034L75.6387 147.046ZM84.1915 149.271C84.7429 149.242 85.1659 148.771 85.1361 148.219C85.1064 147.668 84.6352 147.245 84.0837 147.274L84.1915 149.271ZM92.4579 146.164C91.9175 146.278 91.5717 146.808 91.6855 147.348C91.7994 147.889 92.3298 148.235 92.8702 148.121L92.4579 146.164ZM101.286 145.717C101.805 145.53 102.075 144.957 101.888 144.438C101.7 143.918 101.127 143.649 100.608 143.836L101.286 145.717ZM108.426 140.464C107.932 140.712 107.733 141.313 107.981 141.807C108.229 142.3 108.83 142.499 109.323 142.251L108.426 140.464ZM116.872 137.958C117.339 137.662 117.476 137.044 117.18 136.578C116.884 136.112 116.266 135.974 115.8 136.27L116.872 137.958ZM122.785 131.391C122.345 131.725 122.26 132.353 122.595 132.792C122.93 133.231 123.557 133.316 123.997 132.982L122.785 131.391ZM130.823 127.399C131.242 127.039 131.288 126.407 130.928 125.989C130.567 125.571 129.936 125.524 129.517 125.885L130.823 127.399ZM136.154 119.95C135.748 120.325 135.722 120.957 136.097 121.363C136.472 121.769 137.104 121.794 137.51 121.42L136.154 119.95ZM144.019 115.264C144.416 114.881 144.427 114.247 144.044 113.85C143.66 113.453 143.027 113.442 142.63 113.826L144.019 115.264ZM148.998 107.574C148.606 107.964 148.605 108.597 148.995 108.988C149.384 109.38 150.018 109.381 150.409 108.991L148.998 107.574ZM156.721 102.641C157.109 102.247 157.104 101.614 156.711 101.227C156.317 100.839 155.684 100.844 155.296 101.237L156.721 102.641ZM161.554 94.8471C161.169 95.2426 161.177 95.8757 161.572 96.2612C161.968 96.6467 162.601 96.6386 162.986 96.2431L161.554 94.8471ZM169.218 89.8342C169.603 89.438 169.594 88.8049 169.198 88.4201C168.802 88.0354 168.168 88.0446 167.784 88.4409L169.218 89.8342ZM173.998 82.046C173.613 82.4418 173.622 83.0749 174.017 83.4601C174.413 83.8454 175.046 83.8368 175.431 83.4411L173.998 82.046ZM181.669 77.0556C182.056 76.6614 182.05 76.0282 181.656 75.6414C181.262 75.2546 180.629 75.2606 180.242 75.6548L181.669 77.0556ZM186.526 69.29C186.136 69.6817 186.138 70.3148 186.53 70.7043C186.921 71.0937 187.554 71.0919 187.944 70.7002L186.526 69.29ZM194.265 64.3984C194.658 64.0104 194.663 63.3773 194.275 62.9843C193.887 62.5912 193.253 62.5872 192.86 62.9752L194.265 64.3984ZM199.259 56.7309C198.861 57.1141 198.85 57.7472 199.233 58.1449C199.616 58.5425 200.249 58.5543 200.647 58.171L199.259 56.7309ZM207.116 52.0268C207.52 51.6496 207.541 51.0168 207.164 50.6133C206.787 50.2099 206.154 50.1887 205.75 50.5659L207.116 52.0268ZM212.347 44.5072C211.937 44.8769 211.904 45.5093 212.273 45.9195C212.643 46.3298 213.275 46.3627 213.686 45.993L212.347 44.5072ZM220.368 40.1009C220.786 39.7404 220.833 39.109 220.473 38.6906C220.112 38.2721 219.481 38.2252 219.063 38.5857L220.368 40.1009ZM225.915 32.835C225.487 33.1842 225.423 33.8141 225.772 34.242C226.121 34.6699 226.751 34.7337 227.179 34.3846L225.915 32.835ZM234.153 28.8727C234.592 28.5375 234.676 27.9099 234.341 27.471C234.006 27.0321 233.378 26.948 232.939 27.2833L234.153 28.8727ZM240.183 21.9644C239.732 22.2822 239.623 22.906 239.941 23.3577C240.259 23.8094 240.883 23.9179 241.334 23.6L240.183 21.9644ZM248.724 18.6496C249.19 18.3536 249.328 17.7357 249.032 17.2694C248.736 16.8032 248.118 16.6652 247.652 16.9612L248.724 18.6496ZM255.378 12.356C254.895 12.6244 254.721 13.2332 254.99 13.716C255.258 14.1987 255.867 14.3724 256.35 14.1041L255.378 12.356ZM264.237 10.072C264.738 9.83923 264.955 9.24451 264.722 8.74369C264.489 8.24288 263.895 8.02562 263.394 8.25843L264.237 10.072ZM271.726 4.81605C271.206 5.00287 270.937 5.57564 271.123 6.09537C271.31 6.61509 271.883 6.88496 272.403 6.69814L271.726 4.81605ZM280.84 4.17136C281.378 4.04398 281.71 3.50508 281.583 2.96769C281.455 2.43029 280.916 2.0979 280.379 2.22528L280.84 4.17136ZM289.306 0.730946C288.756 0.783134 288.352 1.27115 288.404 1.82097C288.457 2.37078 288.945 2.77418 289.495 2.722L289.306 0.730946ZM298.237 2.59105C298.788 2.62885 299.266 2.21282 299.303 1.66183C299.341 1.11084 298.925 0.633537 298.374 0.595742L298.237 2.59105ZM307.351 2.02141C306.816 1.88585 306.272 2.20998 306.136 2.74537C306.001 3.28076 306.325 3.82467 306.86 3.96022L307.351 2.02141ZM315.107 6.86399C315.609 7.093 316.202 6.87124 316.431 6.36867C316.66 5.8661 316.439 5.27304 315.936 5.04404L315.107 6.86399ZM323.863 9.48853C323.405 9.18093 322.784 9.30341 322.476 9.7621C322.168 10.2208 322.291 10.842 322.749 11.1496L323.863 9.48853ZM329.664 16.5371C330.076 16.9048 330.708 16.8689 331.076 16.4569C331.444 16.0448 331.408 15.4127 330.996 15.0449L329.664 16.5371ZM337.339 21.4062C336.971 20.9946 336.339 20.9594 335.927 21.3276C335.516 21.6958 335.481 22.328 335.849 22.7396L337.339 21.4062ZM341.388 29.5513C341.717 29.9947 342.344 30.0871 342.787 29.7577C343.23 29.4284 343.323 28.802 342.994 28.3586L341.388 29.5513ZM348.087 35.7941C347.791 35.3276 347.173 35.189 346.707 35.4846C346.24 35.7802 346.102 36.398 346.397 36.8645L348.087 35.7941ZM350.971 44.6179C351.237 45.1017 351.846 45.278 352.329 45.0116C352.813 44.7453 352.989 44.1372 352.723 43.6534L350.971 44.6179ZM356.769 51.4652C356.527 50.9689 355.928 50.7628 355.432 51.005C354.935 51.2472 354.729 51.8459 354.972 52.3423L356.769 51.4652ZM358.719 60.4685C358.94 60.9747 359.529 61.206 360.035 60.9852C360.541 60.7644 360.773 60.175 360.552 59.6688L358.719 60.4685ZM363.97 67.9153C363.768 67.4015 363.187 67.1491 362.673 67.3517C362.159 67.5542 361.907 68.1349 362.11 68.6487L363.97 67.9153ZM365.237 76.9679C365.424 77.4877 365.996 77.7579 366.516 77.5714C367.036 77.3849 367.306 76.8123 367.12 76.2925L365.237 76.9679ZM370.029 84.7667C369.856 84.242 369.291 83.9564 368.767 84.1288C368.242 84.3012 367.956 84.8663 368.129 85.391L370.029 84.7667ZM0.0045109 48.0474C0.140516 49.4744 0.30356 50.911 0.493159 52.355L2.47614 52.0946C2.28956 50.6736 2.1292 49.2606 1.99549 47.8576L0.0045109 48.0474ZM1.9123 60.9268C2.47213 63.7374 3.12622 66.5617 3.87127 69.3855L5.80509 68.8753C5.07027 66.0903 4.42545 63.3059 3.87377 60.5361L1.9123 60.9268ZM6.33379 77.7129C7.2318 80.452 8.21334 83.1779 9.27543 85.8775L11.1366 85.1453C10.0887 82.4818 9.12026 79.7923 8.23426 77.0898L6.33379 77.7129ZM12.6887 93.8592C13.9075 96.4915 15.2039 99.0848 16.575 101.626L18.3352 100.677C16.9839 98.1719 15.7056 95.615 14.5036 93.0189L12.6887 93.8592ZM20.942 109.133C22.4915 111.606 24.116 114.011 25.8124 116.335L27.4277 115.156C25.7603 112.871 24.1622 110.505 22.6367 108.071L20.942 109.133ZM31.2084 123.158C33.1191 125.385 35.1045 127.509 37.1612 129.514L38.5575 128.082C36.5454 126.12 34.6004 124.04 32.7262 121.855L31.2084 123.158ZM43.6991 135.283C46.0057 137.114 48.3875 138.798 50.8407 140.314L51.8923 138.613C49.5096 137.14 47.1916 135.502 44.9426 133.717L43.6991 135.283ZM58.5637 144.414C61.2424 145.608 63.9926 146.605 66.8096 147.383L67.3418 145.455C64.6256 144.705 61.9697 143.743 59.3783 142.587L58.5637 144.414ZM75.422 149.034C78.2899 149.347 81.2146 149.432 84.1915 149.271L84.0837 147.274C81.2157 147.429 78.3995 147.347 75.6387 147.046L75.422 149.034ZM92.8702 148.121C95.6396 147.537 98.4458 146.74 101.286 145.717L100.608 143.836C97.8518 144.829 95.1342 145.6 92.4579 146.164L92.8702 148.121ZM109.323 142.251C111.818 140.999 114.335 139.57 116.872 137.958L115.8 136.27C113.316 137.848 110.858 139.243 108.426 140.464L109.323 142.251ZM123.997 132.982C125.146 132.106 126.299 131.192 127.456 130.24L126.184 128.696C125.047 129.633 123.913 130.531 122.785 131.391L123.997 132.982ZM127.456 130.24C128.566 129.325 129.688 128.378 130.823 127.399L129.517 125.885C128.393 126.854 127.281 127.792 126.184 128.696L127.456 130.24ZM137.51 121.42C139.643 119.452 141.813 117.395 144.019 115.264L142.63 113.826C140.433 115.948 138.273 117.994 136.154 119.95L137.51 121.42ZM150.409 108.991C152.486 106.923 154.591 104.803 156.721 102.641L155.296 101.237C153.169 103.396 151.069 105.512 148.998 107.574L150.409 108.991ZM162.986 96.2431C165.043 94.133 167.121 91.9937 169.218 89.8342L167.784 88.4409C165.686 90.6004 163.61 92.7385 161.554 94.8471L162.986 96.2431ZM175.431 83.4411C177.495 81.3214 179.575 79.1904 181.669 77.0556L180.242 75.6548C178.145 77.7922 176.063 79.9252 173.998 82.046L175.431 83.4411ZM187.944 70.7002C190.039 68.5934 192.146 66.4904 194.265 64.3984L192.86 62.9752C190.736 65.0721 188.624 67.1795 186.526 69.29L187.944 70.7002ZM200.647 58.171C202.794 56.1019 204.951 54.0513 207.116 52.0268L205.75 50.5659C203.577 52.598 201.413 54.6555 199.259 56.7309L200.647 58.171ZM213.686 45.993C215.907 43.9916 218.135 42.0249 220.368 40.1009L219.063 38.5857C216.817 40.5202 214.578 42.4967 212.347 44.5072L213.686 45.993ZM227.179 34.3846C229.501 32.4901 231.826 30.6499 234.153 28.8727L232.939 27.2833C230.594 29.0745 228.252 30.9281 225.915 32.835L227.179 34.3846ZM241.334 23.6C243.799 21.8658 246.263 20.2123 248.724 18.6496L247.652 16.9612C245.162 18.5422 242.672 20.2135 240.183 21.9644L241.334 23.6ZM256.35 14.1041C258.986 12.6385 261.616 11.2903 264.237 10.072L263.394 8.25843C260.726 9.49878 258.053 10.8691 255.378 12.356L256.35 14.1041ZM272.403 6.69814C275.232 5.68121 278.045 4.83382 280.84 4.17136L280.379 2.22528C277.505 2.9065 274.619 3.77604 271.726 4.81605L272.403 6.69814ZM289.495 2.722C292.435 2.44289 295.35 2.39302 298.237 2.59105L298.374 0.595742C295.372 0.389824 292.348 0.442184 289.306 0.730946L289.495 2.722ZM306.86 3.96022C309.637 4.66334 312.387 5.62474 315.107 6.86399L315.936 5.04404C313.108 3.75536 310.245 2.75407 307.351 2.02141L306.86 3.96022ZM322.749 11.1496C325.079 12.712 327.385 14.5032 329.664 16.5371L330.996 15.0449C328.652 12.9531 326.274 11.1049 323.863 9.48853L322.749 11.1496ZM335.849 22.7396C337.717 24.8278 339.564 27.0957 341.388 29.5513L342.994 28.3586C341.135 25.8575 339.25 23.5424 337.339 21.4062L335.849 22.7396ZM346.397 36.8645C347.941 39.3009 349.466 41.8836 350.971 44.6179L352.723 43.6534C351.199 40.8853 349.654 38.2672 348.087 35.7941L346.397 36.8645ZM354.972 52.3423C356.236 54.9344 357.486 57.642 358.719 60.4685L360.552 59.6688C359.308 56.8176 358.047 54.0841 356.769 51.4652L354.972 52.3423ZM362.11 68.6487C363.166 71.3273 364.208 74.0996 365.237 76.9679L367.12 76.2925C366.084 73.4056 365.034 70.6139 363.97 67.9153L362.11 68.6487ZM368.129 85.391C368.604 86.8386 369.077 88.3083 369.546 89.8002L371.454 89.2001C370.982 87.7003 370.507 86.2226 370.029 84.7667L368.129 85.391Z" fill="#FF6333"/>
</svg>
