<svg xmlns="http://www.w3.org/2000/svg" version="1.1" xmlns:xlink="http://www.w3.org/1999/xlink" xmlns:svgjs="http://svgjs.dev/svgjs" viewBox="0 0 800 800"><defs><linearGradient x1="50%" y1="0%" x2="50%" y2="100%" id="ccchaos-grad"><stop stop-color="hsl(206, 75%, 49%)" stop-opacity="1" offset="0%"></stop><stop stop-color="hsl(331, 90%, 56%)" stop-opacity="1" offset="100%"></stop></linearGradient></defs><g stroke-width="2" stroke="hsl(199, 66%, 15%)" fill="none" stroke-linecap="round"><path d="M381.18 114.47C390.6 112.27 400.04 110.63 409.48 109.58 418.93 108.65 428.4 108.37 437.89 108.75 447.42 109.35 457 110.66 466.63 112.65 476.34 114.91 486.14 117.87 496.03 121.49 506.04 125.38 516.16 129.91 526.39 135.04 536.75 140.41 547.22 146.33 557.75 152.75 568.38 159.35 579.04 166.4 589.63 173.84 600.22 181.4 610.64 189.3 620.78 197.5 630.72 205.74 640.2 214.25 649.09 222.97 657.51 231.7 665.14 240.62 671.81 249.7 677.79 258.76 682.64 267.96 686.26 277.29 689.05 286.58 690.55 295.99 690.74 305.51 690.18 315 688.42 324.61 685.57 334.31 682.31 343.99 678.26 353.77 673.6 363.66 669.11 373.53 664.44 383.51 659.82 393.58 656 403.65 652.64 413.8 649.89 424.03 648.4 434.26 647.73 444.31 647.85 454.16 649.18 464 651.11 473.61 653.5 482.97 656.68 492.3 659.95 501.35 663.11 510.07 666.5 518.73 669.4 527.03 671.62 534.92 673.57 542.72 674.57 550.07 674.53 556.94 673.89 563.68 672.1 569.91 669.17 575.59 665.54 581.12 660.8 586.1 655.04 590.51 648.67 594.8 641.41 598.54 633.37 601.74 624.9 604.9 615.83 607.58 606.28 609.83 596.49 612.17 586.36 614.18 576.01 615.94 565.57 617.95 555.01 619.85 544.4 621.7 533.8 624.01 523.2 626.4 512.66 628.96 502.17 632.12 491.74 635.53 481.41 639.22 471.14 643.58 460.96 648.22 450.87 653.1 440.83 658.58 430.87 664.2 421 669.85 411.16 675.85 401.39 681.68 391.71 687.18 382.03 692.65 372.66 697.4 363.59 701.31 354.51 704.83 345.72 707.32 337.23 708.73 328.71 709.52 320.48 709.14 312.54 707.61 304.56 705.41 296.86 702.07 289.44 697.69 281.96 692.71 274.74 686.79 267.78 680.04 260.72 672.85 253.89 664.99 247.29 656.56 240.56 647.9 234.02 638.82 227.67 629.43 221.15 619.98 214.8 610.32 208.61 600.55 202.24 590.84 196.01 581.08 189.94 571.31 183.68 561.67 177.59 552.05 171.7 542.47 165.65 533.04 159.83 523.64 154.26 514.28 148.62 505.05 143.28 495.83 138.31 486.62 133.35 477.51 128.81 468.37 124.74 459.2 120.79 450.1 117.36 440.92 114.52 431.69 111.87 422.49 109.84 413.21 108.48 403.85 107.36 394.5 106.92 385.06 107.2 375.55 107.72 366.04 108.92 356.68 110.76 347.5 112.77 338.32 115.37 329.32 118.5 320.54 121.7 311.78 125.37 303.24 129.46 294.95 133.52 286.7 137.94 278.72 142.65 271.04 147.25 263.4 152.11 256.08 157.18 249.11 162.07 242.18 167.16 235.6 172.42 229.4 177.47 223.23 182.7 217.43 188.09 212.01 193.28 206.59 198.66 201.54 204.22 196.86 209.62 192.14 215.25 187.75 221.11 183.69 226.85 179.54 232.85 175.66 239.12 172.06 245.32 168.29 251.82 164.75 258.61 161.43 265.37 157.87 272.43 154.49 279.8 151.28 287.15 147.8 294.8 144.46 302.74 141.29 310.68 137.84 318.9 134.55 327.38 131.46 335.86 128.13 344.59 125.03 353.57 122.22 362.53 119.26 371.74 116.66 381.17 114.47" stroke-dasharray="1 11" transform="rotate(0, 400, 400)" opacity="0.57"></path><path d="M384.12 125.48C393.25 123.31 402.43 121.67 411.63 120.59 420.85 119.62 430.13 119.28 439.44 119.56 448.8 120.04 458.22 121.2 467.71 123 477.28 125.06 486.94 127.78 496.67 131.14 506.51 134.75 516.45 138.99 526.45 143.79 536.56 148.83 546.73 154.41 556.91 160.48 567.14 166.72 577.32 173.42 587.39 180.5 597.39 187.71 607.15 195.27 616.58 203.13 625.76 211.05 634.44 219.24 642.49 227.65 650.08 236.09 656.86 244.72 662.71 253.51 667.9 262.3 672.03 271.24 675.01 280.31 677.24 289.35 678.29 298.51 678.16 307.77 677.38 317.01 675.54 326.35 672.72 335.78 669.59 345.19 665.76 354.69 661.4 364.27 657.24 373.84 652.94 383.5 648.67 393.21 645.15 402.92 642.03 412.7 639.46 422.51 638.02 432.32 637.3 441.94 637.3 451.32 638.39 460.7 640.02 469.83 642.07 478.69 644.87 487.52 647.77 496.05 650.6 504.24 653.7 512.38 656.38 520.16 658.49 527.53 660.42 534.81 661.53 541.66 661.71 548.05 661.42 554.32 660.08 560.11 657.7 565.39 654.73 570.56 650.71 575.21 645.73 579.35 640.19 583.4 633.78 586.97 626.6 590.05 619 593.13 610.77 595.81 602.02 598.11 593.02 600.53 583.63 602.68 573.96 604.61 564.16 606.82 554.19 608.95 544.1 611.04 534 613.57 523.85 616.2 513.7 618.96 503.59 622.29 493.5 625.84 483.48 629.62 473.51 634.01 463.6 638.63 453.78 643.44 444 648.77 434.3 654.21 424.7 659.65 415.11 665.38 405.61 670.94 396.2 676.17 386.79 681.37 377.69 685.89 368.89 689.62 360.08 693.02 351.55 695.45 343.32 696.89 335.06 697.77 327.08 697.58 319.37 696.31 311.62 694.43 304.13 691.49 296.9 687.57 289.61 683.09 282.55 677.71 275.73 671.53 268.81 664.92 262.1 657.64 255.59 649.79 248.95 641.69 242.49 633.15 236.2 624.27 229.75 615.3 223.44 606.08 217.3 596.71 210.97 587.36 204.79 577.91 198.76 568.42 192.57 559.03 186.54 549.62 180.71 540.24 174.74 530.97 169 521.72 163.52 512.5 157.97 503.39 152.74 494.3 147.86 485.22 143.01 476.23 138.58 467.23 134.6 458.22 130.75 449.27 127.42 440.28 124.65 431.27 122.08 422.28 120.12 413.24 118.81 404.16 117.74 395.09 117.34 385.96 117.64 376.8 118.17 367.64 119.37 358.65 121.19 349.86 123.19 341.08 125.76 332.49 128.84 324.13 132.01 315.78 135.63 307.67 139.66 299.82 143.68 291.98 148.03 284.43 152.69 277.17 157.24 269.94 162.05 263.03 167.07 256.44 171.92 249.88 176.97 243.66 182.18 237.79 187.19 231.94 192.37 226.43 197.7 221.27 202.83 216.1 208.15 211.27 213.63 206.78 218.94 202.23 224.46 197.98 230.18 194.03 235.78 189.98 241.62 186.18 247.7 182.63 253.69 178.91 259.96 175.4 266.49 172.09 272.98 168.55 279.75 165.17 286.81 161.96 293.83 158.49 301.15 155.17 308.75 152 316.33 148.58 324.2 145.31 332.33 142.24 340.44 138.96 348.83 135.9 357.47 133.13 366.09 130.22 374.98 127.65 384.11 125.48" stroke-dasharray="5 10" transform="rotate(4.04, 400, 400)" opacity="0.13"></path><path d="M387.75 136.5C396.59 134.35 405.51 132.72 414.47 131.62 423.45 130.62 432.5 130.21 441.61 130.4 450.76 130.77 460 131.78 469.29 133.41 478.66 135.27 488.1 137.76 497.62 140.86 507.21 144.2 516.87 148.13 526.58 152.61 536.34 157.32 546.12 162.55 555.86 168.26 565.61 174.14 575.25 180.47 584.72 187.18 594.07 194.03 603.14 201.22 611.81 208.72 620.22 216.3 628.09 224.14 635.31 232.21 642.08 240.32 648.06 248.64 653.13 257.12 657.6 265.61 661.07 274.25 663.47 283.01 665.21 291.77 665.88 300.65 665.48 309.62 664.54 318.58 662.65 327.63 659.9 336.75 656.92 345.87 653.33 355.06 649.28 364.31 645.44 373.56 641.47 382.86 637.55 392.21 634.32 401.55 631.43 410.93 629.02 420.32 627.64 429.71 626.89 438.89 626.76 447.81 627.63 456.73 628.99 465.39 630.72 473.76 633.16 482.11 635.7 490.15 638.2 497.84 641 505.49 643.45 512.77 645.42 519.66 647.29 526.47 648.44 532.87 648.8 538.82 648.28 547.39 641.81 562.07 635.86 568.18 631.08 572.05 625.47 575.49 619.12 578.5 612.35 581.55 604.95 584.25 597.02 586.62 588.81 589.14 580.18 591.44 571.22 593.56 562.12 595.96 552.78 598.29 543.29 600.61 533.74 603.35 524.1 606.18 514.42 609.13 504.75 612.59 495.07 616.25 485.42 620.09 475.8 624.48 466.22 629.06 456.72 633.79 447.24 638.97 437.83 644.21 428.51 649.43 419.21 654.91 409.98 660.19 400.85 665.15 391.72 670.09 382.88 674.38 374.34 677.95 365.79 681.21 357.51 683.58 349.51 685.03 341.49 685.99 333.72 685.96 326.22 684.93 318.67 683.35 311.36 680.78 304.3 677.29 297.16 673.28 290.24 668.42 283.54 662.79 276.74 656.75 270.12 650.05 263.69 642.78 257.13 635.25 250.74 627.26 244.5 618.91 238.11 610.44 231.85 601.7 225.75 592.76 219.48 583.81 213.35 574.74 207.38 565.59 201.26 556.49 195.3 547.36 189.54 538.22 183.67 529.17 178.02 520.12 172.63 511.1 167.21 502.16 162.08 493.24 157.32 484.33 152.59 475.51 148.27 466.68 144.41 457.86 140.67 449.09 137.44 440.3 134.77 431.51 132.28 422.75 130.4 413.96 129.15 405.16 128.13 396.37 127.76 387.56 128.07 378.74 128.62 369.91 129.81 361.29 131.61 352.88 133.59 344.46 136.11 336.27 139.14 328.31 142.26 320.35 145.83 312.64 149.79 305.19 153.74 297.76 158.04 290.6 162.63 283.73 167.12 276.88 171.87 270.33 176.83 264.1 181.64 257.88 186.64 251.98 191.8 246.41 196.77 240.84 201.9 235.59 207.19 230.67 212.28 225.72 217.53 221.07 222.95 216.74 228.19 212.34 233.62 208.21 239.24 204.36 244.72 200.39 250.42 196.65 256.34 193.15 262.16 189.47 268.23 185.98 274.55 182.68 280.81 179.16 287.33 175.79 294.12 172.58 300.87 169.13 307.89 165.82 315.18 162.66 322.45 159.27 330 156.04 337.81 153 345.6 149.76 353.67 146.75 361.99 144.02 370.31 141.16 378.89 138.63 387.74 136.5" stroke-dasharray="3 1" transform="rotate(8.08, 400, 400)" opacity="0.95"></path><path d="M391.9 147.51C400.46 145.4 409.11 143.77 417.82 142.66 426.54 141.63 435.35 141.17 444.22 141.27 453.13 141.54 462.12 142.41 471.17 143.87 480.27 145.54 489.44 147.81 498.67 150.65 507.94 153.72 517.25 157.35 526.57 161.52 535.91 165.89 545.23 170.77 554.46 176.12 563.65 181.64 572.7 187.59 581.51 193.92 590.17 200.38 598.51 207.2 606.42 214.31 614.05 221.52 621.12 229 627.54 236.7 633.53 244.46 638.74 252.43 643.1 260.56 646.9 268.72 649.78 277.03 651.66 285.47 652.99 293.91 653.34 302.47 652.72 311.11 651.67 319.76 649.78 328.49 647.12 337.29 644.3 346.08 640.96 354.94 637.21 363.84 633.69 372.74 630.06 381.68 626.46 390.64 623.5 399.6 620.84 408.57 618.58 417.54 617.26 426.5 616.49 435.23 616.25 443.71 616.92 452.17 618.02 460.37 619.45 468.27 621.54 476.15 623.75 483.72 625.92 490.94 628.41 498.13 630.62 504.96 632.42 511.4 634.77 520.78 635.63 537.38 633.81 544.57 630.48 551.24 618.94 562.48 610.92 567.14 604.96 570.18 598.36 572.92 591.22 575.4 583.8 578.02 575.94 580.47 567.72 582.77 559.34 585.35 550.67 587.89 541.81 590.42 532.87 593.34 523.8 596.34 514.64 599.44 505.46 603.02 496.24 606.75 487.02 610.64 477.8 615.01 468.61 619.52 459.46 624.14 450.33 629.16 441.25 634.21 432.24 639.2 423.24 644.42 414.31 649.44 405.47 654.14 396.62 658.82 388.05 662.89 379.76 666.28 371.46 669.4 363.42 671.71 355.64 673.16 347.84 674.18 340.27 674.29 332.96 673.47 325.59 672.16 318.44 669.94 311.52 666.85 304.53 663.29 297.73 658.92 291.13 653.82 284.43 648.33 277.9 642.19 271.54 635.49 265.06 628.53 258.72 621.11 252.53 613.3 246.2 605.36 240 597.12 233.95 588.66 227.74 580.15 221.68 571.49 215.77 562.72 209.73 553.98 203.86 545.17 198.19 536.33 192.43 527.55 186.89 518.76 181.61 509.98 176.32 501.26 171.32 492.55 166.68 483.86 162.09 475.24 157.9 466.62 154.16 458.02 150.55 449.46 147.43 440.9 144.86 432.36 142.47 423.84 140.67 415.31 139.48 406.8 138.51 398.29 138.18 389.79 138.51 381.3 139.06 372.81 140.25 364.54 142.02 356.49 143.96 348.43 146.44 340.61 149.4 333.03 152.46 325.44 155.96 318.11 159.84 311.04 163.73 303.97 167.95 297.18 172.45 290.67 176.89 284.16 181.57 277.95 186.46 272.04 191.22 266.13 196.16 260.51 201.27 255.21 206.2 249.9 211.29 244.88 216.53 240.16 221.58 235.4 226.79 230.92 232.14 226.73 237.33 222.45 242.68 218.43 248.21 214.66 253.6 210.76 259.19 207.08 264.98 203.6 270.66 199.96 276.57 196.49 282.7 193.2 288.77 189.69 295.08 186.34 301.63 183.13 308.14 179.7 314.91 176.41 321.93 173.28 328.93 169.92 336.19 166.73 343.71 163.72 351.21 160.54 358.98 157.59 367.01 154.89 375.03 152.1 383.33 149.62 391.89 147.51" stroke-dasharray="7 8" transform="rotate(12.12, 400, 400)" opacity="0.46"></path><path d="M396.4 158.52C404.68 156.45 413.05 154.84 421.49 153.71 429.94 152.67 438.47 152.16 447.06 152.18 455.69 152.35 464.39 153.09 473.14 154.38 481.92 155.87 490.76 157.92 499.62 160.51 508.51 163.32 517.41 166.66 526.27 170.51 535.13 174.56 543.92 179.09 552.58 184.07 561.17 189.22 569.56 194.78 577.69 200.73 585.64 206.8 593.24 213.22 600.38 219.94 607.24 226.76 613.54 233.85 619.19 241.17 624.44 248.55 628.94 256.14 632.64 263.9 635.85 271.7 638.19 279.65 639.63 287.73 640.6 295.82 640.69 304.03 639.92 312.32 638.79 320.63 636.93 329.01 634.39 337.45 631.76 345.9 628.65 354.39 625.21 362.92 621.99 371.45 618.68 380.01 615.4 388.57 612.7 397.14 610.25 405.7 608.15 414.23 606.88 422.77 606.09 431.06 605.76 439.09 606.25 447.11 607.11 454.86 608.26 462.31 610.03 469.75 611.9 476.87 613.76 483.66 615.95 490.42 617.9 496.83 619.52 502.87 621.71 511.68 622.85 527.31 621.47 534.11 618.8 540.49 609.02 551.39 602.05 556.02 596.83 559.08 590.99 561.89 584.62 564.46 577.98 567.21 570.87 569.8 563.39 572.28 555.73 575.03 547.77 577.74 539.56 580.45 531.27 583.53 522.79 586.67 514.19 589.91 505.56 593.56 496.84 597.35 488.09 601.25 479.34 605.57 470.56 610.01 461.81 614.51 453.06 619.36 444.34 624.2 435.67 628.97 427.01 633.93 418.4 638.68 409.85 643.13 401.3 647.55 393 651.4 384.97 654.62 376.91 657.6 369.11 659.83 361.54 661.28 353.95 662.35 346.58 662.57 339.43 661.95 332.23 660.89 325.24 658.98 318.45 656.27 311.58 653.13 304.9 649.22 298.39 644.62 291.79 639.66 285.35 634.07 279.05 627.93 272.65 621.54 266.38 614.68 260.24 607.43 253.98 600.02 247.85 592.3 241.85 584.34 235.73 576.32 229.75 568.1 223.92 559.76 217.98 551.41 212.22 542.97 206.65 534.48 201.01 526.03 195.6 517.54 190.46 509.05 185.31 500.6 180.46 492.15 175.96 483.72 171.52 475.34 167.48 466.96 163.87 458.61 160.39 450.29 157.4 441.99 154.93 433.7 152.66 425.45 150.93 417.2 149.81 408.98 148.9 400.77 148.61 392.57 148.95 384.41 149.51 376.26 150.67 368.32 152.4 360.62 154.31 352.91 156.73 345.44 159.62 338.21 162.61 330.98 166.03 324 169.81 317.28 173.62 310.56 177.75 304.1 182.17 297.92 186.53 291.73 191.13 285.82 195.95 280.2 200.65 274.56 205.53 269.21 210.57 264.15 215.46 259.05 220.5 254.24 225.68 249.7 230.7 245.11 235.86 240.77 241.15 236.7 246.29 232.53 251.59 228.6 257.04 224.89 262.35 221.06 267.85 217.42 273.52 213.97 279.09 210.36 284.86 206.91 290.84 203.63 296.74 200.15 302.87 196.81 309.22 193.61 315.52 190.21 322.07 186.94 328.86 183.83 335.61 180.52 342.61 177.37 349.87 174.42 357.1 171.29 364.6 168.39 372.35 165.76 380.1 163.02 388.11 160.59 396.39 158.53" stroke-dasharray="5 5" transform="rotate(16.16, 400, 400)" opacity="0.35"></path><path d="M401.05 169.54C409.05 167.5 417.12 165.92 425.26 164.79 433.42 163.73 441.64 163.17 449.93 163.12 458.23 163.2 466.59 163.82 474.99 164.95 483.4 166.26 491.85 168.1 500.29 170.46 508.73 173.01 517.16 176.07 525.51 179.61 533.83 183.33 542.04 187.51 550.09 192.13 558.04 196.91 565.76 202.09 573.18 207.63 580.42 213.31 587.27 219.33 593.66 225.64 599.77 232.05 605.33 238.73 610.26 245.65 614.82 252.63 618.68 259.82 621.78 267.19 624.45 274.6 626.33 282.17 627.4 289.86 628.07 297.58 627.95 305.41 627.07 313.32 625.91 321.26 624.11 329.27 621.72 337.33 619.27 345.4 616.42 353.51 613.27 361.65 610.36 369.8 607.35 377.96 604.36 386.11 601.91 394.27 599.67 402.41 597.71 410.51 596.51 418.61 595.7 426.47 595.28 434.06 595.61 441.65 596.25 448.97 597.14 455.99 598.61 463 600.17 469.71 601.73 476.1 604.46 485.47 608.72 502.47 609.74 510.07 609.98 517.26 606.8 529.87 603.27 535.34 598.56 540.54 585.44 549.72 577.22 553.84 571.32 556.7 564.95 559.44 558.18 562.08 551.25 564.98 543.98 567.85 536.45 570.72 528.81 573.92 520.96 577.18 512.95 580.51 504.9 584.22 496.72 588.02 488.48 591.91 480.22 596.18 471.9 600.51 463.58 604.88 455.25 609.55 446.92 614.19 438.62 618.72 430.32 623.43 422.04 627.92 413.8 632.11 405.57 636.28 397.56 639.92 389.78 642.96 381.99 645.81 374.41 647.96 367.06 649.39 359.68 650.49 352.49 650.81 345.51 650.36 338.49 649.52 331.64 647.9 324.98 645.53 318.24 642.78 311.67 639.31 305.26 635.19 298.76 630.73 292.4 625.67 286.18 620.08 279.86 614.24 273.67 607.94 267.61 601.25 261.43 594.39 255.38 587.21 249.46 579.77 243.44 572.24 237.55 564.51 231.82 556.62 226.01 548.71 220.36 540.68 214.92 532.58 209.43 524.5 204.17 516.36 199.17 508.2 194.19 500.07 189.5 491.93 185.16 483.79 180.88 475.69 177 467.59 173.53 459.52 170.21 451.48 167.35 443.45 164.99 435.46 162.83 427.48 161.2 419.52 160.14 411.61 159.29 403.7 159.03 395.82 159.38 387.99 159.95 380.16 161.09 372.56 162.78 365.19 164.63 357.82 166.99 350.68 169.8 343.79 172.71 336.9 176.03 330.25 179.72 323.85 183.43 317.45 187.47 311.3 191.78 305.41 196.05 299.52 200.57 293.88 205.29 288.52 209.91 283.14 214.72 278.01 219.69 273.16 224.53 268.27 229.51 263.63 234.63 259.25 239.6 254.8 244.71 250.59 249.95 246.62 255.05 242.55 260.28 238.69 265.66 235.04 270.91 231.26 276.33 227.66 281.9 224.24 287.37 220.67 293.03 217.24 298.87 213.97 304.63 210.51 310.6 207.19 316.78 204.02 322.9 200.65 329.25 197.42 335.82 194.34 342.35 191.08 349.13 187.98 356.14 185.07 363.12 182.02 370.36 179.18 377.84 176.6 385.32 173.93 393.05 171.56 401.04 169.54" stroke-dasharray="10 2" transform="rotate(20.200000000000003, 400, 400)" opacity="0.07"></path><path d="M405.66 180.55C413.36 178.56 421.13 177 428.95 175.87 436.78 174.81 444.67 174.22 452.6 174.09 460.55 174.09 468.53 174.59 476.52 175.58 484.53 176.72 492.53 178.36 500.5 180.49 508.46 182.79 516.36 185.57 524.15 188.81 531.9 192.21 539.5 196.06 546.9 200.31 554.2 204.72 561.23 209.52 567.94 214.66 574.47 219.94 580.6 225.55 586.26 231.44 591.66 237.44 596.53 243.7 600.79 250.19 604.71 256.76 607.99 263.54 610.56 270.49 612.76 277.49 614.25 284.64 615 291.93 615.43 299.25 615.16 306.68 614.22 314.19 613.06 321.73 611.34 329.34 609.11 337 606.86 344.67 604.27 352.39 601.4 360.12 598.78 367.86 596.06 375.62 593.36 383.35 591.14 391.09 589.09 398.81 587.27 406.48 586.13 414.15 585.31 421.58 584.83 428.75 585.01 435.91 585.45 442.82 586.11 449.44 587.29 456.04 588.56 462.36 589.83 468.37 592.14 477.21 595.82 493.27 596.76 500.47 597.07 507.33 594.56 519.49 591.61 524.84 587.63 530 576.28 539.29 569.06 543.56 563.85 546.53 558.18 549.39 552.11 552.18 545.88 555.2 539.3 558.21 532.43 561.21 525.45 564.51 518.24 567.86 510.83 571.25 503.37 574.98 495.76 578.78 488.05 582.63 480.3 586.81 472.48 591.03 464.61 595.25 456.74 599.74 448.82 604.16 440.91 608.47 432.99 612.92 425.07 617.16 417.17 621.1 409.26 625.02 401.55 628.45 394.04 631.32 386.52 634.02 379.19 636.09 372.05 637.49 364.88 638.61 357.9 639.01 351.08 638.71 344.23 638.07 337.54 636.71 331 634.66 324.41 632.27 317.96 629.21 311.65 625.53 305.26 621.55 299 617 292.88 611.94 286.66 606.64 280.56 600.89 274.58 594.75 268.51 588.44 262.56 581.8 256.75 574.89 250.84 567.88 245.08 560.65 239.47 553.25 233.8 545.81 228.31 538.23 223.01 530.55 217.69 522.88 212.6 515.13 207.77 507.34 202.96 499.57 198.45 491.77 194.28 483.97 190.19 476.19 186.47 468.41 183.16 460.65 180 452.91 177.28 445.19 175.05 437.5 173 429.82 171.46 422.17 170.47 414.57 169.69 406.98 169.46 399.42 169.82 391.92 170.38 384.41 171.5 377.14 173.14 370.1 174.94 363.06 177.22 356.24 179.94 349.67 182.76 343.09 185.98 336.75 189.55 330.65 193.16 324.55 197.08 318.68 201.28 313.07 205.45 307.44 209.86 302.06 214.47 296.93 219.01 291.77 223.73 286.85 228.62 282.19 233.38 277.47 238.3 272.99 243.35 268.75 248.27 264.43 253.32 260.33 258.49 256.44 263.53 252.46 268.71 248.67 274.02 245.07 279.21 241.35 284.55 237.79 290.03 234.4 295.41 230.86 300.97 227.45 306.68 224.2 312.33 220.78 318.15 217.49 324.17 214.34 330.13 211.01 336.3 207.82 342.67 204.78 349 201.58 355.56 198.55 362.34 195.7 369.09 192.72 376.08 189.95 383.29 187.43 390.5 184.84 397.96 182.53 405.65 180.55" stroke-dasharray="3 9" transform="rotate(24.24, 400, 400)" opacity="0.29"></path><path d="M410.03 191.56C417.41 189.63 424.86 188.1 432.34 186.98 439.82 185.91 447.35 185.29 454.89 185.1 462.44 185.03 470.01 185.42 477.56 186.27 485.11 187.25 492.63 188.71 500.09 190.61 507.52 192.67 514.87 195.19 522.08 198.13 529.22 201.22 536.2 204.73 542.94 208.64 549.58 212.68 555.93 217.09 561.94 221.85 567.78 226.72 573.21 231.91 578.19 237.39 582.92 242.96 587.14 248.79 590.79 254.86 594.15 260.99 596.9 267.34 599.01 273.85 600.81 280.43 601.97 287.16 602.47 294.02 602.71 300.91 602.33 307.92 601.37 315.01 600.25 322.13 598.63 329.33 596.57 336.57 594.53 343.83 592.18 351.13 589.6 358.44 587.25 365.76 584.82 373.09 582.38 380.41 580.38 387.72 578.52 395.01 576.84 402.25 575.75 409.49 574.94 416.5 574.4 423.26 574.44 430.02 574.71 436.52 575.15 442.76 576.57 451.96 579.96 468.95 581.53 476.71 583.03 484.16 584.16 497.6 583.52 503.62 582.13 509.4 576.29 519.8 571.83 524.52 566.5 529.22 553.09 538.18 545.17 542.57 539.6 545.7 533.68 548.81 527.46 551.91 521.14 555.29 514.56 558.69 507.76 562.12 500.9 565.84 493.86 569.61 486.69 573.41 479.49 577.48 472.17 581.57 464.78 585.63 457.37 589.92 449.9 594.13 442.4 598.2 434.89 602.4 427.35 606.39 419.79 610.08 412.24 613.77 404.84 616.98 397.62 619.69 390.38 622.24 383.31 624.22 376.39 625.58 369.46 626.71 362.68 627.18 356.04 627.01 349.38 626.54 342.85 625.42 336.46 623.65 330.02 621.59 323.7 618.91 317.51 615.65 311.26 612.12 305.12 608.06 299.1 603.5 293.01 598.72 287.02 593.5 281.16 587.9 275.22 582.14 269.4 576.05 263.71 569.67 257.95 563.19 252.34 556.48 246.88 549.58 241.38 542.63 236.05 535.52 230.92 528.3 225.79 521.06 220.89 513.74 216.24 506.36 211.64 498.98 207.32 491.56 203.34 484.13 199.44 476.71 195.9 469.28 192.76 461.86 189.76 454.46 187.19 447.06 185.09 439.7 183.16 432.35 181.72 425.03 180.8 417.75 180.08 410.48 179.89 403.25 180.25 396.08 180.82 388.91 181.9 381.96 183.49 375.24 185.23 368.52 187.42 362.02 190.04 355.75 192.77 349.47 195.87 343.42 199.32 337.61 202.81 331.78 206.61 326.18 210.67 320.82 214.72 315.44 219.01 310.28 223.51 305.36 227.94 300.41 232.56 295.68 237.34 291.18 242.03 286.63 246.86 282.29 251.82 278.16 256.67 273.96 261.65 269.96 266.75 266.16 271.73 262.26 276.84 258.53 282.07 254.98 287.2 251.31 292.45 247.79 297.84 244.43 303.14 240.92 308.59 237.55 314.2 234.32 319.72 230.94 325.42 227.69 331.28 224.57 337.09 221.3 343.09 218.16 349.27 215.17 355.42 212.04 361.76 209.07 368.31 206.29 374.83 203.39 381.57 200.7 388.52 198.25 395.47 195.73 402.63 193.49 410.02 191.57" stroke-dasharray="8 7" transform="rotate(28.28, 400, 400)" opacity="0.22"></path><path d="M413.96 202.58C421.02 200.7 428.12 199.21 435.24 198.1 442.35 197.03 449.49 196.38 456.62 196.15 463.75 196 470.87 196.3 477.94 197.01 485.01 197.85 492.02 199.13 498.94 200.82 505.82 202.66 512.59 204.91 519.2 207.57 525.74 210.37 532.08 213.55 538.17 217.11 544.15 220.79 549.83 224.83 555.18 229.19 560.35 233.67 565.13 238.45 569.47 243.5 573.59 248.65 577.22 254.05 580.32 259.67 583.18 265.37 585.47 271.27 587.19 277.35 588.65 283.48 589.54 289.77 589.84 296.19 589.94 302.64 589.5 309.22 588.55 315.87 587.49 322.56 586 329.32 584.12 336.13 582.29 342.96 580.18 349.83 577.87 356.71 575.78 363.61 573.62 370.51 571.43 377.39 569.64 384.28 567.95 391.15 566.4 397.96 565.38 404.78 564.57 411.37 563.98 417.74 563.91 424.1 564.01 430.22 564.27 436.09 565.32 444.77 567.93 460.82 569.16 468.18 570.38 475.27 571.29 488.17 570.74 494.01 569.59 499.66 564.62 509.99 560.77 514.76 556.18 519.53 544.44 528.73 537.42 533.27 532.47 536.48 527.18 539.66 521.58 542.83 515.88 546.24 509.91 549.67 503.71 553.1 497.44 556.8 490.98 560.51 484.35 564.22 477.7 568.18 470.9 572.12 463.99 576.01 457.08 580.09 450.06 584.08 442.98 587.93 435.9 591.87 428.76 595.61 421.57 599.07 414.38 602.52 407.32 605.53 400.4 608.06 393.46 610.48 386.66 612.35 379.99 613.68 373.31 614.79 366.74 615.32 360.31 615.26 353.85 614.94 347.5 614.02 341.28 612.52 335.01 610.76 328.85 608.43 322.81 605.56 316.71 602.45 310.72 598.84 304.83 594.76 298.89 590.48 293.05 585.78 287.33 580.71 281.55 575.48 275.88 569.92 270.34 564.08 264.77 558.14 259.32 551.95 254.04 545.56 248.73 539.12 243.6 532.5 238.67 525.76 233.75 518.99 229.06 512.12 224.62 505.17 220.23 498.22 216.12 491.21 212.34 484.17 208.64 477.14 205.3 470.09 202.34 463.04 199.51 456 197.1 448.96 195.13 441.95 193.32 434.95 191.98 427.97 191.14 421.03 190.48 414.09 190.32 407.2 190.69 400.36 191.25 393.52 192.3 386.9 193.82 380.49 195.49 374.08 197.6 367.88 200.11 361.91 202.73 355.92 205.71 350.15 209.02 344.6 212.38 339.04 216.03 333.69 219.95 328.56 223.87 323.4 228.03 318.46 232.38 313.73 236.7 308.97 241.2 304.41 245.85 300.06 250.43 295.66 255.16 291.45 260.02 287.43 264.78 283.35 269.67 279.44 274.68 275.71 279.59 271.88 284.62 268.22 289.76 264.72 294.8 261.1 299.97 257.63 305.27 254.3 310.48 250.85 315.82 247.52 321.3 244.33 326.71 240.99 332.28 237.78 337.99 234.71 343.65 231.5 349.48 228.42 355.48 225.5 361.43 222.44 367.57 219.55 373.89 216.84 380.19 214.03 386.68 211.42 393.35 209.05 400.02 206.62 406.89 204.45 413.95 202.58" stroke-dasharray="11 9" transform="rotate(32.32, 400, 400)" opacity="0.53"></path><path d="M417.3 213.59C424.02 211.78 430.75 210.32 437.48 209.23 444.2 208.18 450.92 207.51 457.61 207.23 464.3 207.03 470.95 207.23 477.53 207.82 484.09 208.52 490.57 209.63 496.94 211.13 503.26 212.75 509.45 214.76 515.45 217.14 521.38 219.65 527.09 222.53 532.55 225.75 537.9 229.09 542.95 232.76 547.65 236.73 552.21 240.81 556.38 245.19 560.14 249.82 565.25 257.03 572.79 272.68 575.13 281.04 576.31 286.72 576.98 292.56 577.14 298.53 577.15 304.53 576.68 310.65 575.77 316.87 574.79 323.1 573.44 329.42 571.75 335.79 570.12 342.18 568.26 348.61 566.21 355.05 564.37 361.51 562.46 367.98 560.51 374.44 558.92 380.9 557.39 387.34 555.97 393.73 555 400.12 554.2 406.32 553.58 412.3 553.39 421.15 554.17 437.73 554.93 445.44 556.06 452.91 557.88 466.68 558.32 472.99 557.74 484.72 552.69 500.6 549.36 505.4 545.38 510.24 535.11 519.62 528.91 524.25 524.54 527.51 519.82 530.74 514.8 533.95 509.69 537.37 504.31 540.79 498.68 544.2 493 547.83 487.09 551.47 481.01 555.08 474.89 558.89 468.62 562.67 462.2 566.38 455.78 570.26 449.24 574.02 442.6 577.64 435.95 581.34 429.22 584.83 422.42 588.06 415.62 591.27 408.91 594.08 402.31 596.45 395.7 598.72 389.18 600.49 382.78 601.77 376.37 602.87 370.05 603.43 363.84 603.46 357.6 603.27 351.47 602.54 345.43 601.27 339.37 599.78 333.39 597.77 327.52 595.26 321.61 592.54 315.78 589.35 310.07 585.73 304.31 581.92 298.64 577.71 293.09 573.15 287.5 568.44 282.02 563.41 276.67 558.09 271.3 552.68 266.06 547.01 260.98 541.15 255.9 535.21 250.99 529.1 246.28 522.85 241.59 516.57 237.12 510.17 232.91 503.68 228.75 497.18 224.87 490.6 221.29 483.99 217.82 477.37 214.67 470.72 211.9 464.07 209.25 457.41 207 450.75 205.16 444.11 203.49 437.47 202.25 430.85 201.48 424.26 200.88 417.68 200.76 411.13 201.13 404.63 201.67 398.13 202.69 391.83 204.14 385.74 205.74 379.64 207.76 373.74 210.15 368.05 212.64 362.35 215.49 356.84 218.65 351.55 221.87 346.23 225.38 341.12 229.14 336.21 232.91 331.27 236.91 326.52 241.11 321.98 245.28 317.39 249.64 312.99 254.15 308.79 258.61 304.52 263.21 300.44 267.94 296.53 272.6 292.55 277.38 288.73 282.28 285.07 287.09 281.33 292.02 277.73 297.05 274.28 302 270.73 307.07 267.31 312.25 264.03 317.36 260.63 322.58 257.35 327.93 254.2 333.22 250.93 338.65 247.78 344.2 244.76 349.71 241.62 355.37 238.62 361.17 235.76 366.93 232.8 372.86 229.99 378.94 227.36 385 224.64 391.23 222.13 397.63 219.84 404.01 217.49 410.57 215.4 417.29 213.59" stroke-dasharray="6 5" transform="rotate(36.36, 400, 400)" opacity="0.76"></path><path d="M419.89 224.61C426.25 222.86 432.6 221.45 438.92 220.38 445.24 219.34 451.53 218.66 457.76 218.34 470.21 217.91 482.38 219 494.02 221.53 505.51 224.47 516.3 228.87 526.1 234.56 535.49 240.67 543.63 248.01 550.25 256.37 556.22 265.06 560.49 274.66 562.89 284.96 564.67 295.47 564.69 306.58 563.06 318.07 561.3 329.66 558.39 341.57 554.62 353.57 553.02 359.59 551.34 365.63 549.62 371.65 548.21 377.68 546.83 383.7 545.53 389.68 544.23 398.56 542.86 415.38 542.71 423.28 543.58 433.68 544.41 443.27 544.92 452.01 546.03 460.79 546.24 468.79 545.3 476.02 544.26 483.43 541.73 490.23 537.68 496.48 533.21 503.14 527.18 509.47 519.74 515.53 511.93 522.24 502.85 528.88 492.73 535.4 482.41 542.68 471.23 549.86 459.41 556.76 453.47 560.41 447.4 563.95 441.21 567.34 435.02 570.79 428.71 574.05 422.31 577.04 415.91 580.03 409.57 582.64 403.31 584.85 397.04 586.97 390.84 588.64 384.73 589.86 372.47 591.84 360.5 591.84 348.9 589.92 337.21 587.22 325.81 582.64 314.81 576.41 303.69 569.52 292.95 561.18 282.71 551.69 272.42 541.8 262.7 530.99 253.74 519.53 244.91 507.92 236.99 495.82 230.21 483.48 223.81 471.12 218.73 458.58 215.2 446.06 213.65 439.81 212.52 433.56 211.82 427.34 211.29 421.12 211.2 414.92 211.56 408.76 212.1 402.61 213.07 396.64 214.46 390.85 215.98 385.07 217.89 379.46 220.16 374.05 224.98 363.19 231.08 353.05 238.22 343.67 245.44 334.19 253.51 325.38 262.24 317.28 270.81 308.99 279.95 301.29 289.52 294.21 298.83 286.82 308.6 279.93 318.74 273.58 328.65 266.81 339.02 260.5 349.82 254.72 360.47 248.51 371.65 242.83 383.33 237.84 389.15 235.23 395.11 232.81 401.2 230.61 407.29 228.36 413.52 226.35 419.88 224.61" stroke-dasharray="6 8" transform="rotate(40.400000000000006, 400, 400)" opacity="0.19"></path><path d="M421.63 235.62C433.61 232.28 445.44 230.24 456.97 229.49 468.48 228.97 479.61 229.84 490.15 232.03 500.54 234.58 510.18 238.47 518.83 243.56 527.11 249.01 534.2 255.61 539.86 263.18 544.99 271.04 548.58 279.78 550.51 289.19 551.98 298.8 551.93 308.99 550.43 319.57 548.91 330.25 546.39 341.25 543.11 352.38 540.55 363.54 537.8 374.79 535.09 385.94 533.76 397.09 532.75 407.59 532.04 417.38 532.53 427.15 532.95 436.23 533.08 444.57 533.8 452.95 533.75 460.68 532.73 467.74 531.73 474.99 529.43 481.73 525.82 487.99 521.91 494.63 516.61 500.98 510.02 507.08 503.12 513.74 495.03 520.3 485.93 526.7 476.64 533.72 466.48 540.59 455.63 547.12 444.72 554.09 433.21 560.5 421.24 566.03 409.27 571.53 397.43 575.54 385.83 577.95 374.22 579.89 362.81 580.03 351.7 578.45 340.54 576.22 329.64 572.28 319.09 566.81 308.49 560.77 298.24 553.36 288.48 544.85 278.73 535.98 269.55 526.18 261.1 515.73 252.82 505.11 245.42 493.98 239.11 482.55 233.17 471.09 228.48 459.41 225.24 447.69 222.55 435.98 221.42 424.25 222 412.64 223.18 401.03 225.96 390.07 230.14 379.81 234.69 369.51 240.46 359.85 247.21 350.88 254.08 341.81 261.78 333.35 270.12 325.52 278.37 317.5 287.17 310.02 296.4 303.11 305.44 295.91 314.9 289.18 324.72 282.95 334.35 276.36 344.39 270.2 354.8 264.57 365.09 258.57 375.83 253.1 386.97 248.29 398.07 243.23 409.64 238.94 421.62 235.62" stroke-dasharray="6 4" transform="rotate(44.44, 400, 400)" opacity="0.27"></path><path d="M422.44 246.63C433.64 243.45 444.61 241.47 455.2 240.68 465.75 240.07 475.86 240.75 485.34 242.63 494.67 244.82 503.23 248.23 510.81 252.75 518.08 257.58 524.22 263.47 529.04 270.28 533.45 277.33 536.48 285.22 538.06 293.76 539.3 302.47 539.22 311.76 537.9 321.44 536.63 331.21 534.49 341.31 531.66 351.56 529.49 361.85 527.1 372.25 524.66 382.61 523.39 392.96 522.32 402.76 521.44 411.94 521.59 421.12 521.64 429.7 521.43 437.65 521.78 445.66 521.47 453.11 520.34 460 519.3 467.07 517.16 473.71 513.88 479.94 510.41 486.51 505.72 492.83 499.85 498.9 493.76 505.45 486.56 511.86 478.38 518.08 470.06 524.81 460.87 531.34 450.95 537.48 440.99 543.98 430.38 549.92 419.26 555.02 408.14 560.09 397.05 563.79 386.13 566.05 375.2 567.92 364.41 568.19 353.87 566.9 343.31 565.07 332.96 561.7 322.95 556.93 312.92 551.68 303.23 545.16 294.03 537.58 284.87 529.68 276.26 520.88 268.38 511.42 260.68 501.79 253.82 491.63 247.99 481.13 242.53 470.58 238.23 459.78 235.29 448.89 232.85 437.99 231.85 427.03 232.44 416.14 233.56 405.25 236.18 394.93 240.09 385.22 244.36 375.48 249.77 366.31 256.13 357.75 262.61 349.09 269.9 340.97 277.81 333.42 285.68 325.7 294.1 318.46 302.93 311.73 311.63 304.75 320.74 298.2 330.17 292.13 339.46 285.75 349.12 279.78 359.09 274.33 368.96 268.56 379.22 263.31 389.79 258.7 400.33 253.89 411.24 249.8 422.44 246.63" stroke-dasharray="9 5" transform="rotate(48.48, 400, 400)" opacity="0.38"></path><path d="M422.29 257.65C432.68 254.62 442.77 252.72 452.42 251.9 462.04 251.24 471.15 251.74 479.61 253.34 487.94 255.19 495.49 258.16 502.1 262.14 508.46 266.38 513.76 271.61 517.88 277.67 521.68 283.96 524.25 291.02 525.56 298.71 526.65 306.55 526.6 314.95 525.48 323.74 524.47 332.62 522.68 341.83 520.29 351.23 518.47 360.65 516.41 370.22 514.22 379.79 513.03 389.36 511.92 398.48 510.9 407.06 510.77 415.66 510.5 423.75 509.98 431.32 509.98 438.94 509.41 446.11 508.15 452.81 507.03 459.67 504.98 466.17 501.95 472.32 498.82 478.77 494.62 484.99 489.38 490.96 483.97 497.33 477.55 503.55 470.23 509.53 462.78 515.93 454.49 522.09 445.48 527.83 436.42 533.86 426.71 539.33 416.45 544 406.19 548.65 395.9 552.05 385.69 554.15 375.5 555.94 365.39 556.3 355.48 555.26 345.57 553.79 335.86 550.93 326.45 546.8 317.05 542.27 307.99 536.56 299.39 529.87 290.87 522.9 282.89 515.06 275.6 506.56 268.5 497.91 262.2 488.71 256.88 479.15 251.9 469.52 248 459.61 245.35 449.55 243.16 439.49 242.29 429.32 242.87 419.17 243.95 409.01 246.39 399.34 250.03 390.2 254 381.03 259.04 372.35 264.96 364.2 271.03 355.97 277.88 348.22 285.32 340.96 292.76 333.55 300.74 326.58 309.12 320.07 317.42 313.34 326.11 307 335.09 301.12 343.98 294.97 353.19 289.23 362.67 283.98 372.07 278.47 381.79 273.46 391.74 269.08 401.68 264.52 411.89 260.65 422.29 257.65" stroke-dasharray="5 6" transform="rotate(52.52, 400, 400)" opacity="0.83"></path><path d="M421.18 268.66C430.75 265.81 439.95 263.98 448.69 263.16 457.38 262.45 465.54 262.79 473.04 264.14 480.43 265.69 487.06 268.25 492.81 271.73 498.35 275.42 502.94 280.01 506.46 285.38 509.75 290.93 511.97 297.21 513.09 304.08 514.08 311.08 514.1 318.61 513.2 326.54 512.43 334.54 510.98 342.88 508.98 351.43 507.49 360.01 505.73 368.76 503.78 377.57 502.67 386.37 501.54 394.81 500.42 402.82 500.05 410.83 499.51 418.45 498.73 425.62 498.42 432.85 497.61 439.71 496.21 446.18 494.99 452.8 492.98 459.12 490.13 465.13 487.26 471.4 483.45 477.45 478.73 483.25 473.91 489.39 468.18 495.35 461.61 501.05 454.95 507.08 447.5 512.84 439.36 518.17 431.17 523.72 422.33 528.73 412.94 532.99 403.54 537.23 394.06 540.33 384.62 542.27 375.2 543.96 365.82 544.37 356.61 543.56 347.41 542.39 338.38 539.98 329.65 536.43 320.94 532.55 312.56 527.6 304.62 521.74 296.78 515.63 289.45 508.71 282.79 501.15 276.32 493.45 270.6 485.19 265.78 476.55 261.28 467.85 257.78 458.83 255.42 449.62 253.47 440.41 252.73 431.04 253.31 421.63 254.32 412.22 256.58 403.21 259.94 394.65 263.6 386.06 268.26 377.89 273.73 370.18 279.37 362.4 285.73 355.03 292.67 348.09 299.64 341.03 307.12 334.35 314.99 328.09 322.82 321.64 331.03 315.56 339.5 309.91 347.92 304.03 356.62 298.55 365.54 293.53 374.42 288.31 383.55 283.57 392.84 279.42 402.12 275.13 411.6 271.5 421.18 268.66" stroke-dasharray="9 10" transform="rotate(56.56, 400, 400)" opacity="0.85"></path><path d="M419.16 279.67C427.89 277.01 436.22 275.27 444.06 274.45 451.86 273.71 459.12 273.93 465.72 275.05 475.14 277.41 489.84 286.7 494.85 293.41 497.73 298.27 499.67 303.8 500.68 309.89 501.62 316.08 501.73 322.78 501.04 329.88 500.51 337.03 499.39 344.52 497.75 352.25 496.55 360 495.07 367.95 493.35 376.01 492.31 384.06 491.19 391.83 490 399.25 489.44 406.69 488.68 413.81 487.68 420.58 487.09 427.4 486.07 433.92 484.55 440.12 483.21 446.45 481.21 452.53 478.5 458.34 475.81 464.36 472.32 470.18 468.05 475.76 463.72 481.61 458.58 487.26 452.7 492.63 446.75 498.26 440.08 503.59 432.74 508.5 425.38 513.57 417.4 518.12 408.87 521.98 400.34 525.81 391.69 528.62 383.05 530.39 374.43 531.96 365.83 532.42 357.37 531.78 348.93 530.87 340.65 528.86 332.63 525.83 324.67 522.54 317.01 518.28 309.77 513.19 302.65 507.9 296 501.84 289.98 495.17 284.15 488.37 279.01 481.04 274.71 473.3 270.69 465.51 267.58 457.37 265.51 449.02 263.8 440.66 263.18 432.1 263.75 423.45 264.69 414.81 266.77 406.47 269.84 398.51 273.18 390.53 277.44 382.89 282.45 375.64 287.62 368.34 293.48 361.37 299.87 354.79 306.32 348.11 313.27 341.76 320.58 335.79 327.88 329.67 335.54 323.88 343.44 318.49 351.32 312.93 359.45 307.73 367.76 302.98 376.05 298.07 384.53 293.62 393.12 289.73 401.71 285.72 410.42 282.33 419.16 279.67" stroke-dasharray="2 1" transform="rotate(60.599999999999994, 400, 400)" opacity="0.47"></path><path d="M416.31 290.69C424.2 288.21 431.67 286.58 438.64 285.77 448.79 285.08 466.04 288 472.89 291.51 478.82 295.95 486.57 308.4 488.38 316.16 489.3 321.58 489.51 327.49 489.04 333.78 488.73 340.12 487.89 346.8 486.59 353.73 485.65 360.68 484.41 367.85 482.91 375.16 481.96 382.47 480.86 389.57 479.64 396.41 478.93 403.27 478.01 409.88 476.84 416.21 476.03 422.59 474.83 428.74 473.2 434.63 471.75 440.62 469.74 446.4 467.14 451.94 464.59 457.65 461.36 463.18 457.47 468.46 453.56 473.96 448.94 479.25 443.67 484.25 438.36 489.45 432.4 494.34 425.84 498.81 419.25 503.41 412.09 507.51 404.42 510.96 396.74 514.4 388.94 516.92 381.13 518.52 373.33 519.98 365.55 520.44 357.88 519.95 350.24 519.25 342.74 517.59 335.5 515.03 328.31 512.26 321.41 508.64 314.91 504.26 308.52 499.71 302.58 494.46 297.21 488.63 292.03 482.7 287.47 476.24 283.68 469.39 280.14 462.48 277.42 455.23 275.63 447.72 274.14 440.2 273.63 432.46 274.18 424.59 275.06 416.71 276.95 409.07 279.73 401.73 282.75 394.38 286.59 387.3 291.13 380.54 295.82 373.74 301.14 367.22 306.96 361.04 312.86 354.77 319.21 348.79 325.92 343.16 332.64 337.4 339.68 331.95 346.96 326.87 354.23 321.65 361.73 316.78 369.37 312.33 377.01 307.76 384.8 303.61 392.65 300 400.5 296.29 408.42 293.15 416.31 290.69" stroke-dasharray="4 2" transform="rotate(64.64, 400, 400)" opacity="0.65"></path><path d="M412.77 301.7C419.81 299.43 426.44 297.92 432.59 297.13 441.52 296.41 456.57 298.73 462.51 301.7 467.68 305.47 474.53 316.16 476.22 322.89 477.3 330.18 476.79 346.78 475.49 355.89 474.79 362.05 473.77 368.46 472.47 375.04 471.61 381.61 470.56 388.05 469.34 394.3 468.53 400.55 467.48 406.64 466.2 412.5 464.54 421.28 459.62 437.97 456.12 445.89 453.68 451.23 450.68 456.4 447.12 461.33 443.56 466.43 439.41 471.31 434.7 475.9 429.96 480.64 424.66 485.08 418.82 489.11 412.97 493.23 406.61 496.88 399.78 499.95 392.95 503 385.99 505.24 379.02 506.67 372.07 507.99 365.12 508.45 358.27 508.08 351.47 507.55 344.79 506.19 338.34 504.05 331.95 501.74 325.83 498.68 320.09 494.95 314.45 491.08 309.22 486.58 304.51 481.54 299.97 476.42 296 470.81 292.71 464.81 289.63 458.76 287.28 452.36 285.76 445.69 284.49 439.01 284.09 432.08 284.62 424.99 285.42 417.9 287.12 410.98 289.6 404.29 292.29 397.59 295.72 391.09 299.77 384.86 303.97 378.6 308.73 372.57 313.96 366.82 319.27 361.01 325 355.45 331.05 350.2 337.14 344.85 343.53 339.78 350.13 335.05 356.74 330.21 363.55 325.7 370.48 321.58 377.41 317.37 384.46 313.55 391.53 310.23 398.62 306.84 405.73 303.97 412.77 301.7" stroke-dasharray="3 1" transform="rotate(68.68, 400, 400)" opacity="0.20"></path><path d="M408.68 312.71C421.08 308.61 431.87 307.24 440.65 308.34 449.28 309.68 455.79 313.53 459.9 319.47 463.94 325.66 465.8 333.79 465.53 343.36 465.79 353.01 464.59 363.94 462.04 375.65 460.85 387.35 458.7 398.75 455.75 409.44 453.77 420.27 450.38 430.63 445.5 440.16 440.9 450.08 434.35 459.39 425.95 467.59 417.52 476.19 407.15 483.58 395.15 488.93 383.13 494.26 370.73 496.62 358.7 496.17 346.8 495.28 335.44 491.5 325.37 485.3 315.69 478.71 307.58 469.93 301.8 459.58 296.73 449.09 294.28 437.26 295.05 424.67 296.72 412.06 301.41 399.89 308.4 388.59 315.88 377.19 325.35 366.5 336.05 356.91 346.91 347.06 358.84 338.17 371.17 330.73 383.54 323.02 396.28 316.8 408.68 312.71" stroke-dasharray="8 5" transform="rotate(72.72, 400, 400)" opacity="0.14"></path><path d="M404.22 323.73C414.96 320.06 424.24 318.78 431.76 319.63 439.21 320.64 444.84 323.81 448.48 328.8 452.12 333.95 453.97 340.83 454.02 349.02 454.53 357.26 453.71 366.71 451.6 376.98 450.51 387.24 448.41 397.37 445.5 406.98 443.35 416.7 439.95 426.06 435.33 434.71 430.97 443.64 425.03 451.99 417.59 459.28 410.15 466.86 401.12 473.3 390.72 477.92 380.33 482.52 369.64 484.57 359.3 484.24 349.08 483.6 339.38 480.51 330.84 475.35 322.62 469.9 315.79 462.53 310.98 453.72 306.74 444.8 304.74 434.62 305.49 423.61 306.95 412.6 311 401.83 317.03 391.73 323.48 381.57 331.67 371.96 340.96 363.3 350.42 354.46 360.83 346.47 371.58 339.79 382.39 332.92 393.48 327.37 404.22 323.73" stroke-dasharray="2 9" transform="rotate(76.76, 400, 400)" opacity="0.68"></path><path d="M399.57 334.74C408.68 331.54 416.53 330.36 422.91 331 431.67 333.02 441.48 345.48 442.7 355.22 443.38 362.14 442.88 370.16 441.16 378.98 440.18 387.81 438.21 396.63 435.45 405.08 433.23 413.6 429.95 421.86 425.66 429.51 421.6 437.34 416.26 444.65 409.76 450.99 403.27 457.5 395.52 463 386.7 466.91 377.87 470.8 368.87 472.54 360.21 472.3 351.66 471.85 343.58 469.37 336.53 465.14 329.73 460.72 324.14 454.65 320.25 447.3 316.8 439.87 315.21 431.27 315.93 421.86 317.17 412.44 320.59 403.13 325.67 394.31 331.08 385.45 337.99 377.02 345.84 369.38 353.86 361.63 362.71 354.62 371.85 348.75 381.04 342.76 390.47 337.93 399.57 334.74" stroke-dasharray="6 10" transform="rotate(80.80000000000001, 400, 400)" opacity="0.36"></path><path d="M394.95 345.76C405.69 342.52 421.57 343.99 426.45 348.31 430.2 353.99 432.2 370.91 430.73 381.61 429.88 388.99 428.09 396.45 425.57 403.65 423.43 410.9 420.37 417.96 416.5 424.51 412.81 431.16 408.13 437.35 402.56 442.69 397.03 448.13 390.53 452.69 383.24 455.89 375.95 459.09 368.59 460.53 361.58 460.34 354.64 460.04 348.14 458.08 342.52 454.7 337.09 451.2 332.66 446.33 329.63 440.36 326.91 434.33 325.71 427.28 326.36 419.46 327.4 411.65 330.19 403.82 334.33 396.36 338.72 388.87 344.36 381.7 350.78 375.18 357.34 368.59 364.6 362.62 372.12 357.62 379.68 352.55 387.44 348.46 394.95 345.76" stroke-dasharray="7 6" transform="rotate(84.84, 400, 400)" opacity="0.21"></path><path d="M390.54 356.77C402.41 352.35 411.21 353.32 415.97 358.45 420.96 363.67 422.62 372.9 420.29 384.78 419.2 396.65 414.68 409.03 407.88 419.66 401.57 430.53 392.09 439.84 380.51 444.88 368.92 449.89 357.52 449.25 348.86 444.1 340.69 438.67 335.92 428.94 336.8 416.49 338.69 404.04 345.9 391.32 355.83 380.71 366.16 369.97 378.66 361.16 390.54 356.77" stroke-dasharray="8 8" transform="rotate(88.88, 400, 400)" opacity="0.70"></path><path d="M386.53 367.78C398.71 364.73 410.68 376.02 409.85 388.4 408.94 397.35 405.23 406.79 399.78 414.91 394.63 423.15 387.25 430.14 378.61 433.87 369.96 437.58 361.71 437.13 355.6 433.35 349.77 429.45 346.46 422.33 347.24 413.04 348.6 403.74 353.83 394.11 361.07 386 368.56 377.85 377.71 371.15 386.53 367.78" stroke-dasharray="9 3" transform="rotate(92.92, 400, 400)" opacity="0.32"></path><path d="M383.11 378.8C394.77 374.22 401.64 380.33 399.42 392.36 398.38 404.37 389.13 417.97 377.63 422.85 366.12 427.71 356.74 421.51 357.67 409.2 359.67 396.87 371.44 383.35 383.11 378.8" stroke-dasharray="2 7" transform="rotate(96.96, 400, 400)" opacity="0.91"></path></g></svg>